<svg xmlns="http://www.w3.org/2000/svg" viewBox="0 0 120 120" width="120" height="120">
	<style>
		tspan { white-space:pre }
		.shp0 { fill: none;stroke: #000000;stroke-width: 6 } 
	</style>
	<path id="Background" class="shp0" d="M60 117C29.03 117 4 91.76 4 60.53C4 29.29 29.03 4.05 60 4.05C90.97 4.05 116 29.29 116 60.53C116 91.76 90.97 117 60 117Z" />
	<path id="14 " fill="#000000" d="M36.98 88L36.98 42.06L25.2 50.56L25.2 42.99L38.07 33.48L44.93 33.48L44.93 88L36.98 88ZM78.47 88L78.47 74.58L51.95 74.58L51.95 69.51L78.39 33.48L86.51 33.48L86.51 68.34L94.93 68.34L94.93 74.58L86.51 74.58L86.51 88L78.47 88ZM60.92 68.34L79.41 68.34L79.41 42.99L60.92 68.34Z" />
</svg>